<?xml version="1.0" standalone="no"?>
<!DOCTYPE svg PUBLIC "-//W3C//DTD SVG 20010904//EN"
 "http://www.w3.org/TR/2001/REC-SVG-20010904/DTD/svg10.dtd">
<svg version="1.0" xmlns="http://www.w3.org/2000/svg"
 width="1024.000000pt" height="1024.000000pt" viewBox="0 0 1024.000000 1024.000000"
 preserveAspectRatio="xMidYMid meet">
<metadata>
Created by potrace 1.11, written by Peter Selinger 2001-2013
</metadata>
<g transform="translate(0.000000,1024.000000) scale(0.100000,-0.100000)"
fill="#000000" stroke="none">
<path d="M780 9616 c-6 -6 -22 -11 -37 -11 -35 -2 -113 -35 -113 -47 0 -5 -4
-6 -10 -3 -5 3 -17 -3 -27 -14 -9 -11 -20 -18 -24 -15 -5 3 -14 -4 -21 -16 -7
-11 -18 -20 -25 -20 -7 0 -13 -5 -13 -10 0 -6 -12 -23 -27 -37 -16 -14 -27
-29 -26 -34 2 -5 -2 -9 -8 -9 -5 0 -7 -4 -4 -10 3 -5 1 -10 -5 -10 -6 0 -16
-13 -21 -30 -6 -16 -15 -28 -19 -25 -5 3 -7 -3 -5 -12 1 -10 -1 -22 -5 -28 -5
-5 -10 -21 -12 -35 -1 -14 -10 -31 -18 -38 -8 -8 -10 -11 -3 -8 11 6 11 -21
-1 -106 -2 -16 0 -28 3 -28 3 0 6 -11 6 -25 0 -14 -2 -25 -5 -25 -5 0 -5 -48
0 -60 1 -3 2 -8 1 -13 -6 -39 -7 -117 -2 -117 4 0 6 -17 3 -37 -2 -21 -3 -45
-3 -53 1 -15 1 -27 -2 -112 -1 -27 1 -48 6 -48 4 0 4 -8 -1 -17 -10 -20 -10
-52 1 -69 3 -6 4 -14 0 -18 -9 -9 -10 -56 -1 -56 4 0 5 -6 2 -13 -9 -24 -9
-147 0 -147 4 0 3 -7 -4 -15 -9 -11 -9 -15 -1 -15 7 0 9 -5 5 -12 -11 -17 -12
-48 -3 -54 5 -2 6 -11 3 -19 -9 -23 -10 -125 -1 -125 4 0 5 -5 2 -11 -11 -17
-12 -69 -2 -69 5 0 4 -7 -3 -15 -9 -11 -9 -15 -1 -15 7 0 9 -5 5 -12 -11 -17
-12 -48 -3 -54 5 -2 6 -11 3 -19 -9 -23 -10 -125 -1 -125 4 0 5 -5 2 -11 -11
-16 -12 -69 -3 -69 5 0 5 -8 0 -17 -10 -20 -10 -52 1 -69 3 -6 4 -14 0 -18 -9
-9 -10 -56 -1 -56 4 0 5 -6 2 -14 -10 -25 -10 -130 -1 -150 6 -13 6 -16 -2
-11 -8 5 -10 -2 -5 -21 4 -16 7 -33 6 -39 0 -5 -2 -27 -4 -47 -3 -21 0 -38 5
-38 5 0 4 -7 -3 -15 -9 -11 -9 -15 -1 -15 7 0 9 -5 5 -12 -11 -17 -12 -48 -3
-54 5 -2 6 -11 3 -19 -10 -24 -10 -125 0 -125 4 0 3 -7 -4 -15 -9 -11 -9 -15
-1 -15 7 0 9 -5 5 -12 -11 -17 -12 -48 -3 -54 5 -2 6 -11 3 -19 -9 -23 -10
-125 -1 -125 4 0 4 -8 -1 -17 -10 -20 -10 -52 1 -69 3 -6 4 -14 0 -18 -9 -9
-10 -56 -1 -56 4 0 5 -6 2 -13 -9 -24 -9 -147 0 -147 4 0 3 -7 -4 -15 -9 -11
-9 -15 -1 -15 7 0 9 -5 5 -12 -11 -17 -12 -48 -3 -54 5 -2 6 -11 3 -19 -9 -23
-10 -125 -1 -125 4 0 5 -5 2 -11 -11 -17 -12 -69 -2 -69 5 0 4 -7 -3 -15 -9
-11 -9 -15 -1 -15 7 0 9 -5 5 -12 -11 -17 -12 -48 -3 -54 5 -2 6 -11 3 -19 -9
-23 -10 -125 -1 -125 4 0 5 -5 2 -11 -11 -16 -12 -69 -3 -69 5 0 5 -8 0 -17
-10 -20 -10 -52 1 -69 3 -6 4 -14 0 -18 -9 -9 -10 -56 -1 -56 4 0 5 -6 2 -14
-10 -25 -10 -130 -1 -150 6 -13 6 -16 -2 -11 -8 5 -10 -2 -5 -21 4 -16 7 -33
6 -39 0 -5 -2 -27 -4 -47 -3 -21 0 -38 5 -38 5 0 4 -7 -3 -15 -9 -11 -9 -15
-1 -15 7 0 9 -5 5 -12 -11 -17 -12 -48 -3 -54 5 -2 6 -11 3 -19 -10 -24 -10
-125 0 -125 4 0 3 -7 -4 -15 -9 -11 -9 -15 -1 -15 7 0 9 -5 5 -12 -11 -17 -12
-48 -3 -54 5 -2 6 -11 3 -19 -9 -23 -10 -125 -1 -125 4 0 4 -8 -1 -18 -10 -19
-10 -51 1 -68 3 -6 4 -14 0 -18 -9 -9 -10 -56 -1 -56 4 0 5 -6 2 -13 -9 -24
-9 -147 0 -147 4 0 3 -7 -4 -15 -9 -11 -9 -15 -1 -15 7 0 9 -5 5 -12 -11 -17
-12 -48 -3 -54 5 -2 6 -11 3 -19 -9 -23 -10 -125 -1 -125 4 0 5 -5 2 -11 -11
-17 -12 -69 -2 -69 5 0 4 -7 -3 -15 -9 -11 -9 -15 -1 -15 7 0 9 -5 5 -12 -11
-17 -12 -48 -3 -54 5 -2 6 -11 3 -19 -9 -23 -10 -125 -1 -125 4 0 5 -5 2 -11
-11 -16 -12 -69 -3 -69 5 0 5 -8 0 -17 -10 -20 -10 -52 1 -69 3 -6 4 -14 0
-18 -9 -9 -10 -56 -1 -56 4 0 5 -6 2 -14 -10 -25 -10 -130 -1 -150 6 -13 6
-16 -2 -11 -8 5 -10 -2 -5 -21 4 -16 7 -33 6 -39 0 -5 -2 -27 -4 -47 -3 -21 0
-38 5 -38 5 0 4 -7 -3 -15 -9 -11 -9 -15 -1 -15 7 0 9 -5 5 -12 -11 -17 -12
-48 -3 -54 5 -2 6 -11 3 -19 -10 -24 -10 -125 0 -125 4 0 3 -7 -4 -15 -9 -11
-9 -15 -1 -15 7 0 9 -5 5 -12 -11 -17 -12 -48 -3 -54 5 -2 6 -11 3 -19 -9 -23
-10 -125 -1 -125 4 0 4 -8 -1 -17 -10 -20 -10 -52 1 -69 3 -6 4 -14 0 -18 -9
-9 -10 -56 -1 -56 4 0 5 -6 2 -13 -9 -24 -9 -147 0 -147 4 0 3 -7 -4 -15 -9
-11 -9 -15 -1 -15 7 0 9 -5 5 -12 -11 -17 -12 -48 -3 -54 5 -2 6 -11 3 -19 -9
-23 -10 -125 -1 -125 4 0 5 -5 2 -11 -11 -17 -12 -69 -2 -69 5 0 4 -7 -3 -15
-9 -11 -9 -15 -1 -15 7 0 9 -5 5 -12 -11 -17 -12 -48 -3 -54 5 -2 6 -11 3 -19
-9 -23 -10 -125 -1 -125 4 0 5 -5 2 -11 -11 -16 -12 -69 -3 -69 5 0 5 -8 0
-17 -10 -20 -10 -52 1 -69 3 -6 4 -14 0 -18 -9 -9 -10 -56 -1 -56 4 0 5 -6 2
-14 -10 -25 -10 -130 -1 -150 6 -13 6 -16 -2 -11 -8 5 -10 -2 -5 -21 4 -16 7
-33 6 -39 0 -5 -2 -27 -4 -47 -3 -21 0 -38 5 -38 5 0 4 -7 -3 -15 -9 -11 -9
-15 -1 -15 7 0 9 -5 5 -12 -11 -17 -12 -48 -3 -54 5 -2 6 -11 3 -19 -10 -24
-10 -125 0 -125 4 0 3 -7 -4 -15 -7 -8 -9 -15 -4 -15 5 0 9 -11 9 -24 0 -13
-4 -21 -10 -18 -5 3 -2 -3 7 -14 12 -14 15 -23 7 -31 -7 -7 -6 -15 5 -26 9 -9
16 -25 16 -36 0 -12 5 -21 10 -21 6 0 10 -11 10 -25 0 -14 5 -25 10 -25 6 0
10 -7 10 -15 0 -8 5 -15 10 -15 6 0 10 -4 10 -10 0 -5 16 -27 35 -47 20 -21
33 -43 31 -49 -3 -7 3 -10 15 -7 10 3 19 0 19 -6 0 -6 8 -11 17 -11 9 0 13 -3
10 -6 -4 -4 19 -20 50 -37 50 -26 70 -34 96 -36 5 -1 5 -7 1 -13 -6 -10 -4
-10 8 0 9 7 18 9 20 3 1 -5 17 -10 33 -12 17 -2 35 -7 42 -12 7 -5 18 -5 25
-1 19 12 177 11 170 -1 -3 -5 1 -4 10 3 11 9 18 10 23 2 3 -6 12 -7 18 -3 16
10 308 10 314 0 2 -4 9 -4 16 0 15 9 138 10 144 0 2 -4 9 -4 16 0 15 9 138 10
144 0 2 -4 9 -4 16 0 15 9 138 10 144 0 2 -4 10 -4 16 0 18 11 106 9 99 -2 -3
-5 1 -4 10 3 11 9 18 10 23 2 3 -6 12 -7 18 -3 19 11 196 10 189 -2 -3 -5 1
-4 10 3 11 9 18 10 23 2 3 -6 12 -7 18 -3 17 10 47 11 53 1 3 -5 12 -4 20 3
10 8 18 9 27 0 8 -6 17 -8 21 -4 10 10 176 10 176 0 0 -5 7 -4 15 3 11 9 18
10 28 1 8 -6 17 -8 21 -4 9 10 216 11 222 1 3 -5 11 -5 17 -1 14 8 187 11 182
2 -2 -3 2 -6 10 -6 8 0 12 4 9 9 -3 4 -1 8 5 8 5 0 13 -5 16 -10 4 -6 12 -7
18 -3 15 9 188 10 194 0 2 -4 9 -4 16 0 15 9 138 10 144 0 2 -4 9 -4 16 0 15
9 138 10 144 0 2 -4 9 -4 16 0 15 9 138 10 144 0 2 -4 10 -4 16 0 18 11 106 9
99 -2 -3 -5 1 -4 10 3 11 9 18 10 23 2 3 -6 12 -7 18 -3 19 11 196 10 189 -2
-3 -5 1 -4 10 3 11 9 18 10 23 2 3 -6 12 -7 18 -3 17 10 47 11 53 1 3 -5 12
-4 20 3 10 8 18 9 27 0 8 -6 17 -8 21 -4 10 10 176 10 176 0 0 -5 7 -4 15 3
11 9 18 10 28 1 8 -6 17 -8 21 -4 9 10 216 11 222 1 3 -5 11 -5 17 -1 14 8
187 11 182 2 -2 -3 2 -6 10 -6 8 0 12 4 9 9 -3 4 -1 8 5 8 5 0 13 -5 16 -10 4
-6 12 -7 18 -3 15 9 188 10 194 0 2 -4 9 -4 16 0 15 9 138 10 144 0 2 -4 9 -4
16 0 15 9 138 10 144 0 2 -4 9 -4 16 0 15 9 138 10 144 0 2 -4 10 -4 16 0 18
11 106 9 99 -2 -3 -5 1 -4 10 3 11 9 18 10 23 2 3 -6 12 -7 18 -3 19 11 196
10 189 -2 -3 -5 1 -4 10 3 11 9 18 10 23 2 3 -6 12 -7 18 -3 17 10 47 11 53 1
3 -5 12 -4 20 3 10 8 18 9 27 0 8 -6 17 -8 21 -4 10 10 176 10 176 0 0 -5 7
-4 15 3 11 9 18 10 28 1 8 -6 17 -8 21 -4 9 10 216 11 222 1 3 -5 11 -5 17 -1
14 8 187 11 182 2 -2 -3 2 -6 10 -6 8 0 12 4 9 9 -3 4 -1 8 5 8 5 0 13 -5 16
-10 4 -6 12 -7 18 -3 15 9 188 10 194 0 2 -4 9 -4 16 0 15 9 138 10 144 0 2
-4 9 -4 16 0 15 9 138 10 144 0 2 -4 9 -4 16 0 15 9 138 10 144 0 2 -4 10 -4
16 0 18 11 106 9 99 -2 -3 -5 1 -4 10 3 11 9 18 10 23 2 3 -6 12 -7 18 -3 19
11 196 10 189 -2 -3 -5 1 -4 10 3 11 9 18 10 23 2 3 -6 12 -7 18 -3 17 10 47
11 53 1 3 -5 12 -4 20 3 10 8 18 9 27 0 8 -6 17 -8 21 -4 10 10 176 10 176 0
0 -5 7 -4 15 3 11 9 18 10 28 1 8 -6 17 -8 21 -4 9 10 216 11 222 1 3 -5 11
-5 17 -1 14 8 187 11 182 2 -2 -3 2 -6 10 -6 8 0 12 4 9 9 -3 4 -1 8 5 8 5 0
13 -5 16 -10 4 -6 12 -7 18 -3 15 9 188 10 194 0 2 -4 9 -4 16 0 16 10 267 10
267 0 0 -5 5 -5 12 -1 7 4 23 9 36 10 17 2 22 -1 18 -11 -3 -8 0 -17 6 -21 6
-4 8 -3 5 2 -9 15 7 34 32 39 14 3 20 0 16 -8 -4 -7 0 -4 8 5 11 14 16 15 27
5 10 -9 11 -9 6 1 -4 7 -1 12 8 13 9 1 24 2 34 3 19 1 54 30 47 38 -3 3 2 5
10 5 8 0 12 -4 9 -8 -2 -4 0 -11 6 -14 6 -4 10 -3 9 2 -3 18 1 36 7 30 4 -3
15 5 26 18 11 14 26 25 34 25 8 0 13 4 10 9 -3 5 4 11 15 14 14 4 18 10 13 18
-5 9 -2 10 9 6 11 -4 14 -2 10 9 -3 7 0 14 6 14 6 0 11 6 11 14 0 8 7 17 16
20 8 3 13 10 10 15 -4 5 -1 11 4 13 6 2 13 12 14 23 2 11 9 19 14 18 7 -2 9 4
5 14 -4 11 -3 14 5 9 8 -5 10 -2 6 8 -3 9 -3 24 2 34 9 20 11 28 13 43 0 5 7
7 14 3 10 -6 10 -4 0 7 -14 14 -18 33 -5 25 4 -2 8 4 8 15 0 10 -4 19 -9 19
-5 0 -4 7 3 15 9 11 9 15 1 15 -7 0 -9 5 -5 12 11 17 12 48 3 54 -4 2 -4 17 0
32 5 15 5 36 1 47 -4 11 -4 29 0 41 5 11 5 27 0 34 -4 7 -6 19 -3 26 9 23 8
124 -1 124 -4 0 -3 7 4 15 9 11 9 15 1 15 -7 0 -9 5 -5 12 11 17 12 48 3 54
-5 2 -6 11 -3 19 10 24 10 125 0 125 -4 0 -3 7 4 15 9 11 9 15 1 15 -7 0 -9 5
-5 12 11 17 12 48 3 54 -4 2 -4 17 0 32 5 15 5 36 1 47 -4 11 -4 29 0 41 5 11
5 27 0 34 -4 7 -6 19 -3 26 9 23 8 124 -1 124 -4 0 -3 7 4 15 9 11 9 15 1 15
-7 0 -9 5 -5 12 11 17 12 48 3 54 -5 2 -6 11 -3 19 10 24 10 125 0 125 -4 0
-3 7 4 15 9 11 9 15 1 15 -7 0 -9 5 -5 12 11 17 12 48 3 54 -5 2 -6 10 -3 17
9 24 10 87 2 87 -5 0 -4 8 1 18 5 10 6 24 1 32 -4 7 -6 19 -3 26 9 23 8 124
-1 124 -4 0 -3 7 4 15 9 11 9 15 1 15 -7 0 -9 5 -5 12 11 17 12 48 3 54 -4 2
-4 17 0 32 4 15 6 38 4 52 -6 56 -8 110 -2 110 7 0 4 64 -5 78 -4 7 -2 12 6
12 8 0 9 3 3 8 -10 7 -13 15 -19 60 -2 15 -8 38 -14 52 -5 14 -8 28 -5 33 2 4
-1 7 -6 7 -6 0 -11 7 -11 15 0 8 -5 15 -11 15 -5 0 -8 4 -5 9 3 4 -3 16 -14
26 -11 10 -20 24 -20 32 0 7 -5 13 -11 13 -5 0 -7 5 -4 10 3 6 -1 10 -10 10
-9 0 -13 5 -10 10 3 6 2 10 -3 10 -5 0 -27 16 -48 35 -21 19 -44 35 -51 35 -7
0 -13 4 -13 10 0 5 -11 12 -25 16 -14 3 -25 9 -25 13 0 4 -10 7 -22 8 -11 1
-24 6 -27 10 -3 4 -15 10 -26 11 -11 2 -26 9 -34 15 -12 10 -13 9 -7 -2 7 -10
3 -11 -15 -5 -13 4 -632 8 -1376 9 -744 0 -1355 4 -1359 8 -9 9 -9 2111 0
2126 4 6 4 11 -1 11 -4 0 -8 99 -7 220 0 121 -3 220 -6 220 -7 0 -9 10 -12 54
-1 14 -6 22 -12 19 -5 -4 -7 1 -3 10 3 10 2 17 -4 17 -6 0 -7 5 -4 10 3 6 1
10 -5 10 -6 0 -9 4 -6 9 3 5 -1 12 -10 15 -8 3 -13 10 -9 15 3 5 1 12 -5 16
-6 4 -8 10 -5 15 3 5 -4 11 -15 15 -11 3 -20 11 -20 17 0 14 -101 108 -117
108 -7 0 -13 5 -13 11 0 5 -4 7 -10 4 -6 -3 -10 -2 -10 2 0 11 -117 57 -146
57 -13 0 -24 2 -24 6 0 3 -606 5 -1347 5 -742 0 -1357 1 -1368 3 -20 3 -21 10
-19 165 0 89 2 167 4 172 1 6 1 12 0 15 -7 14 -5 287 1 301 5 9 5 20 1 24 -10
9 -10 276 -1 296 5 9 5 20 1 24 -10 9 -10 636 -1 656 5 9 5 20 1 24 -11 10
-10 78 1 93 5 6 5 12 1 12 -5 0 -9 175 -9 400 0 286 -3 401 -11 404 -6 2 -10
16 -9 30 2 14 -1 26 -6 26 -5 0 -9 3 -8 8 1 4 -2 16 -5 27 -4 11 -8 25 -8 30
-1 6 -10 19 -20 29 -10 11 -18 26 -18 33 0 7 -7 13 -16 13 -8 0 -13 4 -10 9 5
8 -45 71 -57 71 -3 0 -17 10 -31 23 -41 38 -54 46 -60 40 -3 -4 -6 -1 -6 5 0
7 -9 12 -20 12 -11 0 -20 5 -20 10 0 6 -12 10 -26 10 -14 0 -23 4 -20 8 2 4
-12 9 -32 10 -20 2 -39 6 -42 10 -8 12 -2319 9 -2330 -2z"/>
<path d="M315 8791 c-3 -5 -2 -12 3 -15 5 -3 9 1 9 9 0 17 -3 19 -12 6z"/>
<path d="M315 8609 c-4 -6 -5 -12 -2 -15 2 -3 7 2 10 11 7 17 1 20 -8 4z"/>
<path d="M315 7649 c-4 -6 -5 -12 -2 -15 2 -3 7 2 10 11 7 17 1 20 -8 4z"/>
<path d="M315 6689 c-4 -6 -5 -12 -2 -15 2 -3 7 2 10 11 7 17 1 20 -8 4z"/>
<path d="M6750 5801 c0 -6 4 -13 10 -16 6 -3 7 1 4 9 -7 18 -14 21 -14 7z"/>
<path d="M315 5729 c-4 -6 -5 -12 -2 -15 2 -3 7 2 10 11 7 17 1 20 -8 4z"/>
<path d="M6755 5729 c-4 -6 -5 -12 -2 -15 2 -3 7 2 10 11 7 17 1 20 -8 4z"/>
<path d="M6755 5360 c3 -5 8 -10 11 -10 2 0 4 5 4 10 0 6 -5 10 -11 10 -5 0
-7 -4 -4 -10z"/>
<path d="M6755 5089 c-4 -6 -5 -12 -2 -15 2 -3 7 2 10 11 7 17 1 20 -8 4z"/>
<path d="M315 4769 c-4 -6 -5 -12 -2 -15 2 -3 7 2 10 11 7 17 1 20 -8 4z"/>
<path d="M6755 4720 c3 -5 8 -10 11 -10 2 0 4 5 4 10 0 6 -5 10 -11 10 -5 0
-7 -4 -4 -10z"/>
<path d="M6755 4449 c-4 -6 -5 -12 -2 -15 2 -3 7 2 10 11 7 17 1 20 -8 4z"/>
<path d="M6755 4080 c3 -5 8 -10 11 -10 2 0 4 5 4 10 0 6 -5 10 -11 10 -5 0
-7 -4 -4 -10z"/>
<path d="M315 3809 c-4 -6 -5 -12 -2 -15 2 -3 7 2 10 11 7 17 1 20 -8 4z"/>
<path d="M6740 3686 c0 -2 8 -10 18 -17 15 -13 16 -12 3 4 -13 16 -21 21 -21
13z"/>
<path d="M315 2849 c-4 -6 -5 -12 -2 -15 2 -3 7 2 10 11 7 17 1 20 -8 4z"/>
<path d="M315 1889 c-4 -6 -5 -12 -2 -15 2 -3 7 2 10 11 7 17 1 20 -8 4z"/>
<path d="M9759 738 c-5 -18 -6 -38 -1 -34 7 8 12 36 6 36 -2 0 -4 -1 -5 -2z"/>
<path d="M510 665 c0 -7 30 -13 34 -7 3 4 -4 9 -15 9 -10 1 -19 0 -19 -2z"/>
<path d="M9695 661 c-3 -5 -2 -12 3 -15 5 -3 9 1 9 9 0 17 -3 19 -12 6z"/>
<path d="M646 645 c-11 -8 -15 -15 -9 -15 6 0 16 7 23 15 16 19 11 19 -14 0z"/>
<path d="M9654 622 c4 -3 14 -7 22 -8 9 -1 13 0 10 4 -4 3 -14 7 -22 8 -9 1
-13 0 -10 -4z"/>
<path d="M755 609 c-4 -6 -5 -12 -2 -15 2 -3 7 2 10 11 7 17 1 20 -8 4z"/>
<path d="M466 602 c-3 -5 1 -9 9 -9 8 0 12 4 9 9 -3 4 -7 8 -9 8 -2 0 -6 -4
-9 -8z"/>
<path d="M9615 600 c-3 -5 -1 -10 4 -10 6 0 11 5 11 10 0 6 -2 10 -4 10 -3 0
-8 -4 -11 -10z"/>
<path d="M690 580 c0 -5 5 -10 11 -10 5 0 7 5 4 10 -3 6 -8 10 -11 10 -2 0 -4
-4 -4 -10z"/>
<path d="M1290 579 c0 -5 5 -7 10 -4 6 3 10 8 10 11 0 2 -4 4 -10 4 -5 0 -10
-5 -10 -11z"/>
<path d="M1370 579 c0 -5 5 -7 10 -4 6 3 10 8 10 11 0 2 -4 4 -10 4 -5 0 -10
-5 -10 -11z"/>
<path d="M1450 579 c0 -5 5 -7 10 -4 6 3 10 8 10 11 0 2 -4 4 -10 4 -5 0 -10
-5 -10 -11z"/>
<path d="M1530 579 c0 -5 5 -7 10 -4 6 3 10 8 10 11 0 2 -4 4 -10 4 -5 0 -10
-5 -10 -11z"/>
<path d="M1610 579 c0 -5 5 -7 10 -4 6 3 10 8 10 11 0 2 -4 4 -10 4 -5 0 -10
-5 -10 -11z"/>
<path d="M1690 579 c0 -5 5 -7 10 -4 6 3 10 8 10 11 0 2 -4 4 -10 4 -5 0 -10
-5 -10 -11z"/>
<path d="M1770 579 c0 -5 5 -7 10 -4 6 3 10 8 10 11 0 2 -4 4 -10 4 -5 0 -10
-5 -10 -11z"/>
<path d="M1850 579 c0 -5 5 -7 10 -4 6 3 10 8 10 11 0 2 -4 4 -10 4 -5 0 -10
-5 -10 -11z"/>
<path d="M3210 579 c0 -5 5 -7 10 -4 6 3 10 8 10 11 0 2 -4 4 -10 4 -5 0 -10
-5 -10 -11z"/>
<path d="M3290 579 c0 -5 5 -7 10 -4 6 3 10 8 10 11 0 2 -4 4 -10 4 -5 0 -10
-5 -10 -11z"/>
<path d="M3370 579 c0 -5 5 -7 10 -4 6 3 10 8 10 11 0 2 -4 4 -10 4 -5 0 -10
-5 -10 -11z"/>
<path d="M3450 579 c0 -5 5 -7 10 -4 6 3 10 8 10 11 0 2 -4 4 -10 4 -5 0 -10
-5 -10 -11z"/>
<path d="M3530 579 c0 -5 5 -7 10 -4 6 3 10 8 10 11 0 2 -4 4 -10 4 -5 0 -10
-5 -10 -11z"/>
<path d="M3610 579 c0 -5 5 -7 10 -4 6 3 10 8 10 11 0 2 -4 4 -10 4 -5 0 -10
-5 -10 -11z"/>
<path d="M3690 579 c0 -5 5 -7 10 -4 6 3 10 8 10 11 0 2 -4 4 -10 4 -5 0 -10
-5 -10 -11z"/>
<path d="M3770 579 c0 -5 5 -7 10 -4 6 3 10 8 10 11 0 2 -4 4 -10 4 -5 0 -10
-5 -10 -11z"/>
<path d="M5130 579 c0 -5 5 -7 10 -4 6 3 10 8 10 11 0 2 -4 4 -10 4 -5 0 -10
-5 -10 -11z"/>
<path d="M5210 579 c0 -5 5 -7 10 -4 6 3 10 8 10 11 0 2 -4 4 -10 4 -5 0 -10
-5 -10 -11z"/>
<path d="M5290 579 c0 -5 5 -7 10 -4 6 3 10 8 10 11 0 2 -4 4 -10 4 -5 0 -10
-5 -10 -11z"/>
<path d="M5370 579 c0 -5 5 -7 10 -4 6 3 10 8 10 11 0 2 -4 4 -10 4 -5 0 -10
-5 -10 -11z"/>
<path d="M5450 579 c0 -5 5 -7 10 -4 6 3 10 8 10 11 0 2 -4 4 -10 4 -5 0 -10
-5 -10 -11z"/>
<path d="M5530 579 c0 -5 5 -7 10 -4 6 3 10 8 10 11 0 2 -4 4 -10 4 -5 0 -10
-5 -10 -11z"/>
<path d="M5610 579 c0 -5 5 -7 10 -4 6 3 10 8 10 11 0 2 -4 4 -10 4 -5 0 -10
-5 -10 -11z"/>
<path d="M5690 579 c0 -5 5 -7 10 -4 6 3 10 8 10 11 0 2 -4 4 -10 4 -5 0 -10
-5 -10 -11z"/>
<path d="M7050 579 c0 -5 5 -7 10 -4 6 3 10 8 10 11 0 2 -4 4 -10 4 -5 0 -10
-5 -10 -11z"/>
<path d="M7130 579 c0 -5 5 -7 10 -4 6 3 10 8 10 11 0 2 -4 4 -10 4 -5 0 -10
-5 -10 -11z"/>
<path d="M7210 579 c0 -5 5 -7 10 -4 6 3 10 8 10 11 0 2 -4 4 -10 4 -5 0 -10
-5 -10 -11z"/>
<path d="M7290 579 c0 -5 5 -7 10 -4 6 3 10 8 10 11 0 2 -4 4 -10 4 -5 0 -10
-5 -10 -11z"/>
<path d="M7370 579 c0 -5 5 -7 10 -4 6 3 10 8 10 11 0 2 -4 4 -10 4 -5 0 -10
-5 -10 -11z"/>
<path d="M7450 579 c0 -5 5 -7 10 -4 6 3 10 8 10 11 0 2 -4 4 -10 4 -5 0 -10
-5 -10 -11z"/>
<path d="M7530 579 c0 -5 5 -7 10 -4 6 3 10 8 10 11 0 2 -4 4 -10 4 -5 0 -10
-5 -10 -11z"/>
<path d="M7610 579 c0 -5 5 -7 10 -4 6 3 10 8 10 11 0 2 -4 4 -10 4 -5 0 -10
-5 -10 -11z"/>
<path d="M8970 579 c0 -5 5 -7 10 -4 6 3 10 8 10 11 0 2 -4 4 -10 4 -5 0 -10
-5 -10 -11z"/>
<path d="M9050 579 c0 -5 5 -7 10 -4 6 3 10 8 10 11 0 2 -4 4 -10 4 -5 0 -10
-5 -10 -11z"/>
<path d="M9130 579 c0 -5 5 -7 10 -4 6 3 10 8 10 11 0 2 -4 4 -10 4 -5 0 -10
-5 -10 -11z"/>
<path d="M9210 579 c0 -5 5 -7 10 -4 6 3 10 8 10 11 0 2 -4 4 -10 4 -5 0 -10
-5 -10 -11z"/>
<path d="M9290 579 c0 -5 5 -7 10 -4 6 3 10 8 10 11 0 2 -4 4 -10 4 -5 0 -10
-5 -10 -11z"/>
<path d="M9335 580 c3 -5 8 -10 11 -10 2 0 4 5 4 10 0 6 -5 10 -11 10 -5 0 -7
-4 -4 -10z"/>
<path d="M9370 580 c0 -5 5 -10 11 -10 5 0 7 5 4 10 -3 6 -8 10 -11 10 -2 0
-4 -4 -4 -10z"/>
<path d="M9576 582 c-3 -5 1 -9 9 -9 8 0 12 4 9 9 -3 4 -7 8 -9 8 -2 0 -6 -4
-9 -8z"/>
<path d="M9473 565 c0 -8 4 -12 9 -9 5 3 6 10 3 15 -9 13 -12 11 -12 -6z"/>
<path d="M2667 559 c7 -7 15 -10 18 -7 3 3 -2 9 -12 12 -14 6 -15 5 -6 -5z"/>
<path d="M2835 560 c-3 -5 -1 -10 4 -10 6 0 11 5 11 10 0 6 -2 10 -4 10 -3 0
-8 -4 -11 -10z"/>
<path d="M4587 559 c7 -7 15 -10 18 -7 3 3 -2 9 -12 12 -14 6 -15 5 -6 -5z"/>
<path d="M4755 560 c-3 -5 -1 -10 4 -10 6 0 11 5 11 10 0 6 -2 10 -4 10 -3 0
-8 -4 -11 -10z"/>
<path d="M6507 559 c7 -7 15 -10 18 -7 3 3 -2 9 -12 12 -14 6 -15 5 -6 -5z"/>
<path d="M6675 560 c-3 -5 -1 -10 4 -10 6 0 11 5 11 10 0 6 -2 10 -4 10 -3 0
-8 -4 -11 -10z"/>
<path d="M8427 559 c7 -7 15 -10 18 -7 3 3 -2 9 -12 12 -14 6 -15 5 -6 -5z"/>
<path d="M8595 560 c-3 -5 -1 -10 4 -10 6 0 11 5 11 10 0 6 -2 10 -4 10 -3 0
-8 -4 -11 -10z"/>
<path d="M739 548 c-5 -18 -6 -38 -1 -34 7 8 12 36 6 36 -2 0 -4 -1 -5 -2z"/>
<path d="M1250 540 c0 -5 5 -10 11 -10 5 0 7 5 4 10 -3 6 -8 10 -11 10 -2 0
-4 -4 -4 -10z"/>
<path d="M1295 540 c3 -5 8 -10 11 -10 2 0 4 5 4 10 0 6 -5 10 -11 10 -5 0 -7
-4 -4 -10z"/>
<path d="M1455 540 c3 -5 8 -10 11 -10 2 0 4 5 4 10 0 6 -5 10 -11 10 -5 0 -7
-4 -4 -10z"/>
<path d="M1615 540 c3 -5 8 -10 11 -10 2 0 4 5 4 10 0 6 -5 10 -11 10 -5 0 -7
-4 -4 -10z"/>
<path d="M1775 540 c3 -5 8 -10 11 -10 2 0 4 5 4 10 0 6 -5 10 -11 10 -5 0 -7
-4 -4 -10z"/>
<path d="M2095 540 c3 -5 8 -10 11 -10 2 0 4 5 4 10 0 6 -5 10 -11 10 -5 0 -7
-4 -4 -10z"/>
<path d="M2170 540 c0 -5 5 -10 11 -10 5 0 7 5 4 10 -3 6 -8 10 -11 10 -2 0
-4 -4 -4 -10z"/>
<path d="M2215 540 c-3 -5 -1 -10 4 -10 6 0 11 5 11 10 0 6 -2 10 -4 10 -3 0
-8 -4 -11 -10z"/>
<path d="M2295 540 c-3 -5 -1 -10 4 -10 6 0 11 5 11 10 0 6 -2 10 -4 10 -3 0
-8 -4 -11 -10z"/>
<path d="M2330 540 c0 -5 5 -10 11 -10 5 0 7 5 4 10 -3 6 -8 10 -11 10 -2 0
-4 -4 -4 -10z"/>
<path d="M2410 540 c0 -5 5 -10 11 -10 5 0 7 5 4 10 -3 6 -8 10 -11 10 -2 0
-4 -4 -4 -10z"/>
<path d="M2455 540 c-3 -5 -1 -10 4 -10 6 0 11 5 11 10 0 6 -2 10 -4 10 -3 0
-8 -4 -11 -10z"/>
<path d="M2530 539 c0 -5 5 -7 10 -4 6 3 10 8 10 11 0 2 -4 4 -10 4 -5 0 -10
-5 -10 -11z"/>
<path d="M2890 540 c0 -5 5 -10 11 -10 5 0 7 5 4 10 -3 6 -8 10 -11 10 -2 0
-4 -4 -4 -10z"/>
<path d="M2935 540 c-3 -5 -1 -10 4 -10 6 0 11 5 11 10 0 6 -2 10 -4 10 -3 0
-8 -4 -11 -10z"/>
<path d="M3010 539 c0 -5 5 -7 10 -4 6 3 10 8 10 11 0 2 -4 4 -10 4 -5 0 -10
-5 -10 -11z"/>
<path d="M3215 540 c3 -5 8 -10 11 -10 2 0 4 5 4 10 0 6 -5 10 -11 10 -5 0 -7
-4 -4 -10z"/>
<path d="M3375 540 c3 -5 8 -10 11 -10 2 0 4 5 4 10 0 6 -5 10 -11 10 -5 0 -7
-4 -4 -10z"/>
<path d="M3535 540 c3 -5 8 -10 11 -10 2 0 4 5 4 10 0 6 -5 10 -11 10 -5 0 -7
-4 -4 -10z"/>
<path d="M3695 540 c3 -5 8 -10 11 -10 2 0 4 5 4 10 0 6 -5 10 -11 10 -5 0 -7
-4 -4 -10z"/>
<path d="M4015 540 c3 -5 8 -10 11 -10 2 0 4 5 4 10 0 6 -5 10 -11 10 -5 0 -7
-4 -4 -10z"/>
<path d="M4090 540 c0 -5 5 -10 11 -10 5 0 7 5 4 10 -3 6 -8 10 -11 10 -2 0
-4 -4 -4 -10z"/>
<path d="M4135 540 c-3 -5 -1 -10 4 -10 6 0 11 5 11 10 0 6 -2 10 -4 10 -3 0
-8 -4 -11 -10z"/>
<path d="M4215 540 c-3 -5 -1 -10 4 -10 6 0 11 5 11 10 0 6 -2 10 -4 10 -3 0
-8 -4 -11 -10z"/>
<path d="M4250 540 c0 -5 5 -10 11 -10 5 0 7 5 4 10 -3 6 -8 10 -11 10 -2 0
-4 -4 -4 -10z"/>
<path d="M4330 540 c0 -5 5 -10 11 -10 5 0 7 5 4 10 -3 6 -8 10 -11 10 -2 0
-4 -4 -4 -10z"/>
<path d="M4375 540 c-3 -5 -1 -10 4 -10 6 0 11 5 11 10 0 6 -2 10 -4 10 -3 0
-8 -4 -11 -10z"/>
<path d="M4450 539 c0 -5 5 -7 10 -4 6 3 10 8 10 11 0 2 -4 4 -10 4 -5 0 -10
-5 -10 -11z"/>
<path d="M4810 540 c0 -5 5 -10 11 -10 5 0 7 5 4 10 -3 6 -8 10 -11 10 -2 0
-4 -4 -4 -10z"/>
<path d="M4855 540 c-3 -5 -1 -10 4 -10 6 0 11 5 11 10 0 6 -2 10 -4 10 -3 0
-8 -4 -11 -10z"/>
<path d="M4930 539 c0 -5 5 -7 10 -4 6 3 10 8 10 11 0 2 -4 4 -10 4 -5 0 -10
-5 -10 -11z"/>
<path d="M5135 540 c3 -5 8 -10 11 -10 2 0 4 5 4 10 0 6 -5 10 -11 10 -5 0 -7
-4 -4 -10z"/>
<path d="M5295 540 c3 -5 8 -10 11 -10 2 0 4 5 4 10 0 6 -5 10 -11 10 -5 0 -7
-4 -4 -10z"/>
<path d="M5455 540 c3 -5 8 -10 11 -10 2 0 4 5 4 10 0 6 -5 10 -11 10 -5 0 -7
-4 -4 -10z"/>
<path d="M5615 540 c3 -5 8 -10 11 -10 2 0 4 5 4 10 0 6 -5 10 -11 10 -5 0 -7
-4 -4 -10z"/>
<path d="M5935 540 c3 -5 8 -10 11 -10 2 0 4 5 4 10 0 6 -5 10 -11 10 -5 0 -7
-4 -4 -10z"/>
<path d="M6010 540 c0 -5 5 -10 11 -10 5 0 7 5 4 10 -3 6 -8 10 -11 10 -2 0
-4 -4 -4 -10z"/>
<path d="M6055 540 c-3 -5 -1 -10 4 -10 6 0 11 5 11 10 0 6 -2 10 -4 10 -3 0
-8 -4 -11 -10z"/>
<path d="M6135 540 c-3 -5 -1 -10 4 -10 6 0 11 5 11 10 0 6 -2 10 -4 10 -3 0
-8 -4 -11 -10z"/>
<path d="M6170 540 c0 -5 5 -10 11 -10 5 0 7 5 4 10 -3 6 -8 10 -11 10 -2 0
-4 -4 -4 -10z"/>
<path d="M6250 540 c0 -5 5 -10 11 -10 5 0 7 5 4 10 -3 6 -8 10 -11 10 -2 0
-4 -4 -4 -10z"/>
<path d="M6295 540 c-3 -5 -1 -10 4 -10 6 0 11 5 11 10 0 6 -2 10 -4 10 -3 0
-8 -4 -11 -10z"/>
<path d="M6370 539 c0 -5 5 -7 10 -4 6 3 10 8 10 11 0 2 -4 4 -10 4 -5 0 -10
-5 -10 -11z"/>
<path d="M6730 540 c0 -5 5 -10 11 -10 5 0 7 5 4 10 -3 6 -8 10 -11 10 -2 0
-4 -4 -4 -10z"/>
<path d="M6775 540 c-3 -5 -1 -10 4 -10 6 0 11 5 11 10 0 6 -2 10 -4 10 -3 0
-8 -4 -11 -10z"/>
<path d="M6850 539 c0 -5 5 -7 10 -4 6 3 10 8 10 11 0 2 -4 4 -10 4 -5 0 -10
-5 -10 -11z"/>
<path d="M7055 540 c3 -5 8 -10 11 -10 2 0 4 5 4 10 0 6 -5 10 -11 10 -5 0 -7
-4 -4 -10z"/>
<path d="M7215 540 c3 -5 8 -10 11 -10 2 0 4 5 4 10 0 6 -5 10 -11 10 -5 0 -7
-4 -4 -10z"/>
<path d="M7375 540 c3 -5 8 -10 11 -10 2 0 4 5 4 10 0 6 -5 10 -11 10 -5 0 -7
-4 -4 -10z"/>
<path d="M7535 540 c3 -5 8 -10 11 -10 2 0 4 5 4 10 0 6 -5 10 -11 10 -5 0 -7
-4 -4 -10z"/>
<path d="M7855 540 c3 -5 8 -10 11 -10 2 0 4 5 4 10 0 6 -5 10 -11 10 -5 0 -7
-4 -4 -10z"/>
<path d="M7930 540 c0 -5 5 -10 11 -10 5 0 7 5 4 10 -3 6 -8 10 -11 10 -2 0
-4 -4 -4 -10z"/>
<path d="M7975 540 c-3 -5 -1 -10 4 -10 6 0 11 5 11 10 0 6 -2 10 -4 10 -3 0
-8 -4 -11 -10z"/>
<path d="M8055 540 c-3 -5 -1 -10 4 -10 6 0 11 5 11 10 0 6 -2 10 -4 10 -3 0
-8 -4 -11 -10z"/>
<path d="M8090 540 c0 -5 5 -10 11 -10 5 0 7 5 4 10 -3 6 -8 10 -11 10 -2 0
-4 -4 -4 -10z"/>
<path d="M8170 540 c0 -5 5 -10 11 -10 5 0 7 5 4 10 -3 6 -8 10 -11 10 -2 0
-4 -4 -4 -10z"/>
<path d="M8215 540 c-3 -5 -1 -10 4 -10 6 0 11 5 11 10 0 6 -2 10 -4 10 -3 0
-8 -4 -11 -10z"/>
<path d="M8290 539 c0 -5 5 -7 10 -4 6 3 10 8 10 11 0 2 -4 4 -10 4 -5 0 -10
-5 -10 -11z"/>
<path d="M8650 540 c0 -5 5 -10 11 -10 5 0 7 5 4 10 -3 6 -8 10 -11 10 -2 0
-4 -4 -4 -10z"/>
<path d="M8695 540 c-3 -5 -1 -10 4 -10 6 0 11 5 11 10 0 6 -2 10 -4 10 -3 0
-8 -4 -11 -10z"/>
<path d="M8770 539 c0 -5 5 -7 10 -4 6 3 10 8 10 11 0 2 -4 4 -10 4 -5 0 -10
-5 -10 -11z"/>
<path d="M8975 540 c3 -5 8 -10 11 -10 2 0 4 5 4 10 0 6 -5 10 -11 10 -5 0 -7
-4 -4 -10z"/>
<path d="M9135 540 c3 -5 8 -10 11 -10 2 0 4 5 4 10 0 6 -5 10 -11 10 -5 0 -7
-4 -4 -10z"/>
<path d="M9295 540 c3 -5 8 -10 11 -10 2 0 4 5 4 10 0 6 -5 10 -11 10 -5 0 -7
-4 -4 -10z"/>
<path d="M9534 542 c4 -3 14 -7 22 -8 9 -1 13 0 10 4 -4 3 -14 7 -22 8 -9 1
-13 0 -10 -4z"/>
<path d="M859 528 c-5 -18 -6 -38 -1 -34 7 8 12 36 6 36 -2 0 -4 -1 -5 -2z"/>
<path d="M939 528 c-5 -18 -6 -38 -1 -34 7 8 12 36 6 36 -2 0 -4 -1 -5 -2z"/>
<path d="M995 521 c-3 -5 -2 -12 3 -15 5 -3 9 1 9 9 0 17 -3 19 -12 6z"/>
<path d="M2734 516 c1 -8 5 -18 8 -22 4 -3 5 1 4 10 -1 8 -5 18 -8 22 -4 3 -5
-1 -4 -10z"/>
<path d="M2819 528 c-5 -18 -6 -38 -1 -34 7 8 12 36 6 36 -2 0 -4 -1 -5 -2z"/>
<path d="M2854 516 c1 -8 5 -18 8 -22 4 -3 5 1 4 10 -1 8 -5 18 -8 22 -4 3 -5
-1 -4 -10z"/>
<path d="M4654 516 c1 -8 5 -18 8 -22 4 -3 5 1 4 10 -1 8 -5 18 -8 22 -4 3 -5
-1 -4 -10z"/>
<path d="M4739 528 c-5 -18 -6 -38 -1 -34 7 8 12 36 6 36 -2 0 -4 -1 -5 -2z"/>
<path d="M4774 516 c1 -8 5 -18 8 -22 4 -3 5 1 4 10 -1 8 -5 18 -8 22 -4 3 -5
-1 -4 -10z"/>
<path d="M6574 516 c1 -8 5 -18 8 -22 4 -3 5 1 4 10 -1 8 -5 18 -8 22 -4 3 -5
-1 -4 -10z"/>
<path d="M6659 528 c-5 -18 -6 -38 -1 -34 7 8 12 36 6 36 -2 0 -4 -1 -5 -2z"/>
<path d="M6694 516 c1 -8 5 -18 8 -22 4 -3 5 1 4 10 -1 8 -5 18 -8 22 -4 3 -5
-1 -4 -10z"/>
<path d="M8494 516 c1 -8 5 -18 8 -22 4 -3 5 1 4 10 -1 8 -5 18 -8 22 -4 3 -5
-1 -4 -10z"/>
<path d="M8579 528 c-5 -18 -6 -38 -1 -34 7 8 12 36 6 36 -2 0 -4 -1 -5 -2z"/>
<path d="M8614 516 c1 -8 5 -18 8 -22 4 -3 5 1 4 10 -1 8 -5 18 -8 22 -4 3 -5
-1 -4 -10z"/>
<path d="M9470 525 c0 -5 5 -17 10 -25 5 -8 10 -10 10 -5 0 6 -5 17 -10 25 -5
8 -10 11 -10 5z"/>
<path d="M1055 501 c-3 -5 -2 -12 3 -15 5 -3 9 1 9 9 0 17 -3 19 -12 6z"/>
<path d="M1135 499 c-3 -4 2 -6 10 -5 21 3 28 13 10 13 -9 0 -18 -4 -20 -8z"/>
<path d="M1255 499 c-3 -4 2 -6 10 -5 21 3 28 13 10 13 -9 0 -18 -4 -20 -8z"/>
<path d="M1416 501 c-3 -5 2 -15 12 -22 15 -12 16 -12 5 2 -7 9 -10 19 -6 22
3 4 4 7 0 7 -3 0 -8 -4 -11 -9z"/>
<path d="M1534 502 c4 -3 14 -7 22 -8 9 -1 13 0 10 4 -4 3 -14 7 -22 8 -9 1
-13 0 -10 -4z"/>
<path d="M1736 501 c-3 -5 2 -15 12 -22 15 -12 16 -12 5 2 -7 9 -10 19 -6 22
3 4 4 7 0 7 -3 0 -8 -4 -11 -9z"/>
<path d="M1895 501 c-3 -5 -2 -12 3 -15 5 -3 9 1 9 9 0 17 -3 19 -12 6z"/>
<path d="M1974 502 c4 -3 14 -7 22 -8 9 -1 13 0 10 4 -4 3 -14 7 -22 8 -9 1
-13 0 -10 -4z"/>
<path d="M2095 499 c-3 -4 2 -6 10 -5 21 3 28 13 10 13 -9 0 -18 -4 -20 -8z"/>
<path d="M2514 502 c4 -3 14 -7 22 -8 9 -1 13 0 10 4 -4 3 -14 7 -22 8 -9 1
-13 0 -10 -4z"/>
<path d="M2615 503 c3 -3 0 -11 -5 -18 -7 -8 -5 -12 4 -12 14 0 16 22 3 32 -4
3 -5 2 -2 -2z"/>
<path d="M2994 502 c4 -3 14 -7 22 -8 9 -1 13 0 10 4 -4 3 -14 7 -22 8 -9 1
-13 0 -10 -4z"/>
<path d="M3115 499 c-3 -4 2 -6 10 -5 21 3 28 13 10 13 -9 0 -18 -4 -20 -8z"/>
<path d="M3336 501 c-3 -5 2 -15 12 -22 15 -12 16 -12 5 2 -7 9 -10 19 -6 22
3 4 4 7 0 7 -3 0 -8 -4 -11 -9z"/>
<path d="M3454 502 c4 -3 14 -7 22 -8 9 -1 13 0 10 4 -4 3 -14 7 -22 8 -9 1
-13 0 -10 -4z"/>
<path d="M3656 501 c-3 -5 2 -15 12 -22 15 -12 16 -12 5 2 -7 9 -10 19 -6 22
3 4 4 7 0 7 -3 0 -8 -4 -11 -9z"/>
<path d="M3815 501 c-3 -5 -2 -12 3 -15 5 -3 9 1 9 9 0 17 -3 19 -12 6z"/>
<path d="M3894 502 c4 -3 14 -7 22 -8 9 -1 13 0 10 4 -4 3 -14 7 -22 8 -9 1
-13 0 -10 -4z"/>
<path d="M4015 499 c-3 -4 2 -6 10 -5 21 3 28 13 10 13 -9 0 -18 -4 -20 -8z"/>
<path d="M4434 502 c4 -3 14 -7 22 -8 9 -1 13 0 10 4 -4 3 -14 7 -22 8 -9 1
-13 0 -10 -4z"/>
<path d="M4535 503 c3 -3 0 -11 -5 -18 -7 -8 -5 -12 4 -12 14 0 16 22 3 32 -4
3 -5 2 -2 -2z"/>
<path d="M4914 502 c4 -3 14 -7 22 -8 9 -1 13 0 10 4 -4 3 -14 7 -22 8 -9 1
-13 0 -10 -4z"/>
<path d="M5035 499 c-3 -4 2 -6 10 -5 21 3 28 13 10 13 -9 0 -18 -4 -20 -8z"/>
<path d="M5256 501 c-3 -5 2 -15 12 -22 15 -12 16 -12 5 2 -7 9 -10 19 -6 22
3 4 4 7 0 7 -3 0 -8 -4 -11 -9z"/>
<path d="M5374 502 c4 -3 14 -7 22 -8 9 -1 13 0 10 4 -4 3 -14 7 -22 8 -9 1
-13 0 -10 -4z"/>
<path d="M5576 501 c-3 -5 2 -15 12 -22 15 -12 16 -12 5 2 -7 9 -10 19 -6 22
3 4 4 7 0 7 -3 0 -8 -4 -11 -9z"/>
<path d="M5735 501 c-3 -5 -2 -12 3 -15 5 -3 9 1 9 9 0 17 -3 19 -12 6z"/>
<path d="M5814 502 c4 -3 14 -7 22 -8 9 -1 13 0 10 4 -4 3 -14 7 -22 8 -9 1
-13 0 -10 -4z"/>
<path d="M5935 499 c-3 -4 2 -6 10 -5 21 3 28 13 10 13 -9 0 -18 -4 -20 -8z"/>
<path d="M6354 502 c4 -3 14 -7 22 -8 9 -1 13 0 10 4 -4 3 -14 7 -22 8 -9 1
-13 0 -10 -4z"/>
<path d="M6455 503 c3 -3 0 -11 -5 -18 -7 -8 -5 -12 4 -12 14 0 16 22 3 32 -4
3 -5 2 -2 -2z"/>
<path d="M6834 502 c4 -3 14 -7 22 -8 9 -1 13 0 10 4 -4 3 -14 7 -22 8 -9 1
-13 0 -10 -4z"/>
<path d="M6955 499 c-3 -4 2 -6 10 -5 21 3 28 13 10 13 -9 0 -18 -4 -20 -8z"/>
<path d="M7176 501 c-3 -5 2 -15 12 -22 15 -12 16 -12 5 2 -7 9 -10 19 -6 22
3 4 4 7 0 7 -3 0 -8 -4 -11 -9z"/>
<path d="M7294 502 c4 -3 14 -7 22 -8 9 -1 13 0 10 4 -4 3 -14 7 -22 8 -9 1
-13 0 -10 -4z"/>
<path d="M7496 501 c-3 -5 2 -15 12 -22 15 -12 16 -12 5 2 -7 9 -10 19 -6 22
3 4 4 7 0 7 -3 0 -8 -4 -11 -9z"/>
<path d="M7655 501 c-3 -5 -2 -12 3 -15 5 -3 9 1 9 9 0 17 -3 19 -12 6z"/>
<path d="M7734 502 c4 -3 14 -7 22 -8 9 -1 13 0 10 4 -4 3 -14 7 -22 8 -9 1
-13 0 -10 -4z"/>
<path d="M7855 499 c-3 -4 2 -6 10 -5 21 3 28 13 10 13 -9 0 -18 -4 -20 -8z"/>
<path d="M8274 502 c4 -3 14 -7 22 -8 9 -1 13 0 10 4 -4 3 -14 7 -22 8 -9 1
-13 0 -10 -4z"/>
<path d="M8375 503 c3 -3 0 -11 -5 -18 -7 -8 -5 -12 4 -12 14 0 16 22 3 32 -4
3 -5 2 -2 -2z"/>
<path d="M8754 502 c4 -3 14 -7 22 -8 9 -1 13 0 10 4 -4 3 -14 7 -22 8 -9 1
-13 0 -10 -4z"/>
<path d="M8875 499 c-3 -4 2 -6 10 -5 21 3 28 13 10 13 -9 0 -18 -4 -20 -8z"/>
<path d="M9097 503 c-9 -8 12 -33 27 -33 6 0 3 5 -7 11 -9 6 -15 14 -12 20 7
10 2 12 -8 2z"/>
<path d="M1095 480 c-3 -5 -1 -10 4 -10 6 0 11 5 11 10 0 6 -2 10 -4 10 -3 0
-8 -4 -11 -10z"/>
<path d="M1375 480 c-3 -5 -1 -10 4 -10 6 0 11 5 11 10 0 6 -2 10 -4 10 -3 0
-8 -4 -11 -10z"/>
<path d="M1695 480 c-3 -5 -1 -10 4 -10 6 0 11 5 11 10 0 6 -2 10 -4 10 -3 0
-8 -4 -11 -10z"/>
<path d="M3166 482 c-3 -5 1 -9 9 -9 8 0 12 4 9 9 -3 4 -7 8 -9 8 -2 0 -6 -4
-9 -8z"/>
<path d="M3295 480 c-3 -5 -1 -10 4 -10 6 0 11 5 11 10 0 6 -2 10 -4 10 -3 0
-8 -4 -11 -10z"/>
<path d="M3615 480 c-3 -5 -1 -10 4 -10 6 0 11 5 11 10 0 6 -2 10 -4 10 -3 0
-8 -4 -11 -10z"/>
<path d="M5086 482 c-3 -5 1 -9 9 -9 8 0 12 4 9 9 -3 4 -7 8 -9 8 -2 0 -6 -4
-9 -8z"/>
<path d="M5215 480 c-3 -5 -1 -10 4 -10 6 0 11 5 11 10 0 6 -2 10 -4 10 -3 0
-8 -4 -11 -10z"/>
<path d="M5535 480 c-3 -5 -1 -10 4 -10 6 0 11 5 11 10 0 6 -2 10 -4 10 -3 0
-8 -4 -11 -10z"/>
<path d="M7006 482 c-3 -5 1 -9 9 -9 8 0 12 4 9 9 -3 4 -7 8 -9 8 -2 0 -6 -4
-9 -8z"/>
<path d="M7135 480 c-3 -5 -1 -10 4 -10 6 0 11 5 11 10 0 6 -2 10 -4 10 -3 0
-8 -4 -11 -10z"/>
<path d="M7455 480 c-3 -5 -1 -10 4 -10 6 0 11 5 11 10 0 6 -2 10 -4 10 -3 0
-8 -4 -11 -10z"/>
<path d="M8926 482 c-3 -5 1 -9 9 -9 8 0 12 4 9 9 -3 4 -7 8 -9 8 -2 0 -6 -4
-9 -8z"/>
<path d="M9055 480 c-3 -5 -1 -10 4 -10 6 0 11 5 11 10 0 6 -2 10 -4 10 -3 0
-8 -4 -11 -10z"/>
<path d="M1516 453 c-6 -14 -5 -15 5 -6 7 7 10 15 7 18 -3 3 -9 -2 -12 -12z"/>
<path d="M1794 456 c1 -8 5 -18 8 -22 4 -3 5 1 4 10 -1 8 -5 18 -8 22 -4 3 -5
-1 -4 -10z"/>
<path d="M1835 461 c-3 -5 -2 -12 3 -15 5 -3 9 1 9 9 0 17 -3 19 -12 6z"/>
<path d="M2990 460 c0 -5 5 -10 11 -10 5 0 7 5 4 10 -3 6 -8 10 -11 10 -2 0
-4 -4 -4 -10z"/>
<path d="M3436 453 c-6 -14 -5 -15 5 -6 7 7 10 15 7 18 -3 3 -9 -2 -12 -12z"/>
<path d="M3714 456 c1 -8 5 -18 8 -22 4 -3 5 1 4 10 -1 8 -5 18 -8 22 -4 3 -5
-1 -4 -10z"/>
<path d="M3755 461 c-3 -5 -2 -12 3 -15 5 -3 9 1 9 9 0 17 -3 19 -12 6z"/>
<path d="M4910 460 c0 -5 5 -10 11 -10 5 0 7 5 4 10 -3 6 -8 10 -11 10 -2 0
-4 -4 -4 -10z"/>
<path d="M5356 453 c-6 -14 -5 -15 5 -6 7 7 10 15 7 18 -3 3 -9 -2 -12 -12z"/>
<path d="M5634 456 c1 -8 5 -18 8 -22 4 -3 5 1 4 10 -1 8 -5 18 -8 22 -4 3 -5
-1 -4 -10z"/>
<path d="M5675 461 c-3 -5 -2 -12 3 -15 5 -3 9 1 9 9 0 17 -3 19 -12 6z"/>
<path d="M6830 460 c0 -5 5 -10 11 -10 5 0 7 5 4 10 -3 6 -8 10 -11 10 -2 0
-4 -4 -4 -10z"/>
<path d="M7276 453 c-6 -14 -5 -15 5 -6 7 7 10 15 7 18 -3 3 -9 -2 -12 -12z"/>
<path d="M7554 456 c1 -8 5 -18 8 -22 4 -3 5 1 4 10 -1 8 -5 18 -8 22 -4 3 -5
-1 -4 -10z"/>
<path d="M7595 461 c-3 -5 -2 -12 3 -15 5 -3 9 1 9 9 0 17 -3 19 -12 6z"/>
<path d="M8750 460 c0 -5 5 -10 11 -10 5 0 7 5 4 10 -3 6 -8 10 -11 10 -2 0
-4 -4 -4 -10z"/>
<path d="M2393 425 c0 -8 4 -12 9 -9 5 3 6 10 3 15 -9 13 -12 11 -12 -6z"/>
<path d="M4313 425 c0 -8 4 -12 9 -9 5 3 6 10 3 15 -9 13 -12 11 -12 -6z"/>
<path d="M6233 425 c0 -8 4 -12 9 -9 5 3 6 10 3 15 -9 13 -12 11 -12 -6z"/>
<path d="M8153 425 c0 -8 4 -12 9 -9 5 3 6 10 3 15 -9 13 -12 11 -12 -6z"/>
<path d="M9555 411 c-3 -5 -2 -12 3 -15 5 -3 9 1 9 9 0 17 -3 19 -12 6z"/>
<path d="M2799 393 c-13 -16 -12 -17 4 -4 9 7 17 15 17 17 0 8 -8 3 -21 -13z"/>
<path d="M4719 393 c-13 -16 -12 -17 4 -4 16 13 21 21 13 21 -2 0 -10 -8 -17
-17z"/>
<path d="M6639 393 c-13 -16 -12 -17 4 -4 9 7 17 15 17 17 0 8 -8 3 -21 -13z"/>
<path d="M8559 393 c-13 -16 -12 -17 4 -4 9 7 17 15 17 17 0 8 -8 3 -21 -13z"/>
<path d="M9110 406 c0 -2 7 -7 16 -10 8 -3 12 -2 9 4 -6 10 -25 14 -25 6z"/>
<path d="M1075 371 c-3 -5 -2 -12 3 -15 5 -3 9 1 9 9 0 17 -3 19 -12 6z"/>
<path d="M2033 365 c0 -8 4 -12 9 -9 5 3 6 10 3 15 -9 13 -12 11 -12 -6z"/>
<path d="M3153 365 c0 -8 4 -12 9 -9 5 3 6 10 3 15 -9 13 -12 11 -12 -6z"/>
<path d="M3953 365 c0 -8 4 -12 9 -9 5 3 6 10 3 15 -9 13 -12 11 -12 -6z"/>
<path d="M5073 365 c0 -8 4 -12 9 -9 5 3 6 10 3 15 -9 13 -12 11 -12 -6z"/>
<path d="M5873 365 c0 -8 4 -12 9 -9 5 3 6 10 3 15 -9 13 -12 11 -12 -6z"/>
<path d="M6993 365 c0 -8 4 -12 9 -9 5 3 6 10 3 15 -9 13 -12 11 -12 -6z"/>
<path d="M7793 365 c0 -8 4 -12 9 -9 5 3 6 10 3 15 -9 13 -12 11 -12 -6z"/>
<path d="M8913 365 c0 -8 4 -12 9 -9 5 3 6 10 3 15 -9 13 -12 11 -12 -6z"/>
<path d="M3196 342 c-3 -5 1 -9 9 -9 8 0 12 4 9 9 -3 4 -7 8 -9 8 -2 0 -6 -4
-9 -8z"/>
<path d="M5116 342 c-3 -5 1 -9 9 -9 8 0 12 4 9 9 -3 4 -7 8 -9 8 -2 0 -6 -4
-9 -8z"/>
<path d="M7036 342 c-3 -5 1 -9 9 -9 8 0 12 4 9 9 -3 4 -7 8 -9 8 -2 0 -6 -4
-9 -8z"/>
<path d="M8956 342 c-3 -5 1 -9 9 -9 8 0 12 4 9 9 -3 4 -7 8 -9 8 -2 0 -6 -4
-9 -8z"/>
<path d="M1230 319 c0 -5 5 -7 10 -4 6 3 10 8 10 11 0 2 -4 4 -10 4 -5 0 -10
-5 -10 -11z"/>
</g>
</svg>
